# xmcd
#
# Track frame offsets:
# 150
# 23529
# 38529
# 59325
# 77025
# 101475
# 120337
# 143437
# 160949
# 175199
# 195599
# 213149
#
# Disc length: 3145 seconds
#
# Revision: 0
# Processed by: cddbd v1.5.2PL0 Copyright (c) Steve Scherf et al.
# Submitted via: Audion 3.0.2 (http://www.panic.com/audion/)
#
DISCID=880c470c
DTITLE=Carouge - Sleepwalking Daydreaming
DYEAR=1900
DGENRE=
TTITLE0=Papillon
TTITLE1=Darling
TTITLE2=Skin
TTITLE3=Sleepwalking
TTITLE4=Just Try!
TTITLE5=Framboise
TTITLE6=Moonlight
TTITLE7=How Could I Know
TTITLE8=Keep On
TTITLE9=Do Me
TTITLE10=Dream
TTITLE11=In Your Arms
EXTD=
EXTT0=
EXTT1=
EXTT2=
EXTT3=
EXTT4=
EXTT5=
EXTT6=
EXTT7=
EXTT8=
EXTT9=
EXTT10=
EXTT11=
PLAYORDER=
